<?xml version="1.0" encoding="UTF-8" standalone="no"?>
<!DOCTYPE svg PUBLIC "-//W3C//DTD SVG 1.1//EN"
 "http://www.w3.org/Graphics/SVG/1.1/DTD/svg11.dtd">
<!-- Generated by graphviz version 2.26.0 (20091210.2329)
 -->
<!-- Title: jobs Pages: 1 -->
<svg width="148pt" height="194pt"
 viewBox="0.00 0.00 148.00 194.00" xmlns="http://www.w3.org/2000/svg" xmlns:xlink="http://www.w3.org/1999/xlink">
<g id="graph1" class="graph" transform="scale(1 1) rotate(0) translate(4 190)">
<title>jobs</title>
<polygon fill="white" stroke="white" points="-4,5 -4,-190 145,-190 145,5 -4,5"/>
<!-- jobA -->
<g id="node1" class="node"><title>jobA</title>
<ellipse fill="none" stroke="gray" cx="31" cy="-167" rx="31.1127" ry="19.0919"/>
<text text-anchor="middle" x="31" y="-163.9" font-family="Times Roman,serif" font-size="14.00">jobA</text>
</g>
<!-- jobC -->
<g id="node3" class="node"><title>jobC</title>
<ellipse fill="none" stroke="gray" cx="70" cy="-93" rx="29.9071" ry="19.0919"/>
<text text-anchor="middle" x="70" y="-89.9" font-family="Times Roman,serif" font-size="14.00">jobC</text>
</g>
<!-- jobA&#45;&gt;jobC -->
<g id="edge2" class="edge"><title>jobA&#45;&gt;jobC</title>
<path fill="none" stroke="black" d="M40.6405,-148.708C45.1743,-140.105 50.6732,-129.671 55.6807,-120.17"/>
<polygon fill="black" stroke="black" points="58.9043,-121.56 60.4704,-111.082 52.7117,-118.296 58.9043,-121.56"/>
</g>
<!-- jobD -->
<g id="node7" class="node"><title>jobD</title>
<ellipse fill="none" stroke="gray" cx="70" cy="-19" rx="31.1127" ry="19.0919"/>
<text text-anchor="middle" x="70" y="-15.9" font-family="Times Roman,serif" font-size="14.00">jobD</text>
</g>
<!-- jobC&#45;&gt;jobD -->
<g id="edge6" class="edge"><title>jobC&#45;&gt;jobD</title>
<path fill="none" stroke="black" d="M70,-73.9432C70,-66.1493 70,-56.9538 70,-48.3381"/>
<polygon fill="black" stroke="black" points="73.5001,-48.2494 70,-38.2495 66.5001,-48.2495 73.5001,-48.2494"/>
</g>
<!-- jobB -->
<g id="node4" class="node"><title>jobB</title>
<ellipse fill="none" stroke="gray" cx="110" cy="-167" rx="29.9071" ry="19.0919"/>
<text text-anchor="middle" x="110" y="-163.9" font-family="Times Roman,serif" font-size="14.00">jobB</text>
</g>
<!-- jobB&#45;&gt;jobC -->
<g id="edge4" class="edge"><title>jobB&#45;&gt;jobC</title>
<path fill="none" stroke="black" d="M100.112,-148.708C95.4622,-140.105 89.8223,-129.671 84.6864,-120.17"/>
<polygon fill="black" stroke="black" points="87.6081,-118.214 79.7739,-111.082 81.4501,-121.543 87.6081,-118.214"/>
</g>
</g>
</svg>
